<?xml version="1.0" standalone="no"?>
  <!DOCTYPE svg PUBLIC "-//W3C//DTD SVG 1.0//EN" "http://www.w3.org/TR/2001/REC-SVG-20010904/DTD/svg10.dtd">
  <svg
    xmlns="http://www.w3.org/2000/svg"
    xmlns:xlink="http://www.w3.org/1999/xlink"
    id="body_1"
    width="500"
    height="500"
  >
    <defs>
      <clipPath id="1">
        <path clip-rule="evenodd" d="M0 0L37112 0L37112 37112L0 37112z" />
      </clipPath>
    </defs>

    <g transform="matrix(0.013472731 0 0 0.013472731 0 0)">
      <g>
        <g>
          <g></g>
          <g></g>
        </g>
      </g>
      <g>
        <g>
          <g clip-path="url(#1)">
            <g>
              <g>
                <g>
                  <path
                    d="M18556 37112L0 37112L0 0L37112 0L37112 37112L18556 37112z"
                    stroke="none"
                    fill="#008000"
                    fill-rule="nonzero"
                  />
                </g>
              </g>
              <g>
                <g>
                  <path
                    d="M13469 37859L-3736 30908L10166 -3502L44576 10400L30674 44810L13469 37859z"
                    stroke="none"
                    fill="#FFCC00"
                    fill-rule="nonzero"
                  />
                </g>
              </g>
              <g>
                <g>
                  <path
                    d="M34075 28263C 33803 26570 32699 25148 29428 23821C 28292 23299 27026 22925 26649 22065C 26514 21564 26497 21281 26582 20978C 26825 19994 28000 19687 28931 19969C 29531 20170 30099 20632 30441 21370C 32043 20333 32039 20340 33157 19627C 32748 18992 32529 18699 32261 18428C 31298 17352 29986 16798 27887 16840C 27523 16886 27157 16935 26793 16981C 25745 17246 24747 17796 24161 18533C 22405 20527 22906 24016 25043 25451C 27149 27032 30243 27392 30638 28870C 31023 30679 29308 31265 27605 31057C 26349 30796 25650 30157 24895 28997C 23505 29801 23505 29801 22077 30623C 22415 31364 22772 31699 23339 32341C 26028 35068 32755 34934 33962 30806C 34011 30665 34336 29720 34075 28263zM20175 17059L16704 17059C 16704 20057 16690 23035 16690 26033C 16690 27942 16788 29692 16478 30228C 15970 31283 14654 31152 14054 30948C 13444 30648 13134 30221 12774 29618C 12675 29445 12601 29311 12576 29300C 11634 29875 10696 30454 9754 31029C 10223 31992 10915 32828 11800 33371C 13123 34165 14901 34408 16760 33981C 17970 33629 19014 32898 19561 31787C 20351 30330 20182 28566 20175 26615C 20193 23433 20175 20251 20175 17059z"
                    stroke="none"
                    fill="#323330"
                    fill-rule="nonzero"
                  />
                </g>
              </g>
            </g>
          </g>
        </g>
      </g>
    </g>
  </svg>